<?xml version="1.0" encoding="UTF-8"?>
<!DOCTYPE svg PUBLIC "-//W3C//DTD SVG 1.1//EN" "http://www.w3.org/Graphics/SVG/1.1/DTD/svg11.dtd">
<!-- Creator: CorelDRAW -->
<svg xmlns="http://www.w3.org/2000/svg" xml:space="preserve" width="492px" height="512px" version="1.1" shape-rendering="geometricPrecision" text-rendering="geometricPrecision" image-rendering="optimizeQuality" fill-rule="evenodd" clip-rule="evenodd"
viewBox="0 0 492 512.324"
 xmlns:xlink="http://www.w3.org/1999/xlink"
 xmlns:xodm="http://www.corel.com/coreldraw/odm/2003">
 <g id="Layer_x0020_1">
  <metadata id="CorelCorpID_0Corel-Layer"/>
  <circle fill="#FF3333" cx="231.181" cy="231.181" r="231.181"/>
  <path fill="#B22424" d="M437.687 127.171c33.913,40.723 54.313,93.088 54.313,150.225 0,129.746 -105.183,234.928 -234.928,234.928 -103.431,0 -191.249,-66.843 -222.619,-159.684 40.74,65.851 113.605,109.722 196.728,109.722 127.682,0 231.181,-103.499 231.181,-231.181 0,-37.412 -8.899,-72.749 -24.675,-104.01z"/>
  <path fill="white" fill-rule="nonzero" d="M274.777 155.822l0 64.497c0,2.352 -0.149,4.592 -0.417,6.745l-74.201 -88.262c13.688,-39.178 74.618,-33.511 74.618,17.02zm-139.082 -15.339c-4.468,-5.314 -3.782,-13.246 1.532,-17.714 5.314,-4.469 13.246,-3.782 17.714,1.531l42.502 50.557 0 -0.209 64.867 77.16 -0.1 0.09 18.98 22.578 0.097 -0.095 12.378 14.725 -0.097 0.092 33.099 39.372c4.468,5.314 3.782,13.246 -1.532,17.715 -5.314,4.468 -13.246,3.781 -17.714,-1.533l-34.643 -41.206 -1.529 0.726c-7.932,3.672 -16.526,6.146 -25.539,7.183l0 27.72c0,12.632 -19.196,12.632 -19.196,0l0 -27.72c-9.011,-1.037 -17.603,-3.513 -25.527,-7.191 -9.074,-4.205 -17.274,-9.973 -24.247,-16.946l-0.166 -0.179c-7.691,-7.728 -13.9,-16.933 -18.14,-27.123 -4.12,-9.901 -6.397,-20.74 -6.397,-32.069 0,-2.633 1.081,-5.037 2.822,-6.773 1.726,-1.741 4.13,-2.822 6.776,-2.822 2.645,0 5.05,1.081 6.783,2.814l0.192 0.212c1.623,1.718 2.623,4.038 2.623,6.569 0,8.748 1.755,17.103 4.926,24.724 3.304,7.934 8.146,15.096 14.138,21.091 6.008,5.997 13.166,10.844 21.091,14.138 7.621,3.171 15.976,4.929 24.724,4.929 8.404,0 16.446,-1.622 23.823,-4.561l-22.247 -26.462c-19.842,0.779 -40.245,-13.051 -40.245,-41.487l0 -6.386 -61.748 -73.45zm160.31 112.33l0.06 -0.142c3.17,-7.621 4.925,-15.976 4.925,-24.724 0,-2.645 1.082,-5.05 2.815,-6.783 1.736,-1.736 4.138,-2.812 6.784,-2.812 2.643,0 5.047,1.076 6.783,2.812l0.194 0.211c1.618,1.718 2.618,4.033 2.618,6.572 0,11.336 -2.277,22.175 -6.39,32.079 -1.263,3.039 -2.701,5.99 -4.297,8.837l-13.492 -16.05z"/>
 </g>
</svg>
